first trial
nRows=23
nColumns=38

# SIMM Motion File Header:
name Sujet_04_velo_60.mvnx
datacolumns 38
datarows 23
otherdata 1
range 5.2330 5.6000
endheader
time pelvis_tilt  pelvis_list  pelvis_rotation  pelvis_tx  pelvis_ty  pelvis_tz  hip_flexion_r  hip_adduction_r  hip_rotation_r  knee_angle_r  ankle_angle_r  subtalar_angle_r  mtp_angle_r  hip_flexion_l  hip_adduction_l  hip_rotation_l  knee_angle_l  ankle_angle_l  subtalar_angle_l  mtp_angle_l  lumbar_extension  lumbar_bending  lumbar_rotation  arm_flex_r  arm_add_r  arm_rot_r  elbow_flex_r  pro_sup_r  wrist_flex_r  wrist_dev_r  arm_flex_l  arm_add_l  arm_rot_l  elbow_flex_l  pro_sup_l  wrist_flex_l  wrist_dev_l
5.2330	-12.4235	7.4642	-38.9294	0.0000	1.2500	-0.0000	42.2581	-9.8415	2.9668	43.0185	-3.1078	2.4724	0.0000	80.1594	-2.6597	-8.0836	108.3325	10.4185	8.9444	0.0000	-19.6399	0.1760	-2.2696	68.4388	-12.2018	41.3088	28.3988	29.5092	-26.7825	-9.8718	79.9938	7.5954	27.5045	14.4545	61.8950	-21.6337	-16.9394	
5.2500	-12.4511	7.4697	-39.0967	0.0000	1.2500	-0.0000	41.4801	-9.8136	2.4927	43.5468	-2.4268	2.4414	-0.0000	81.1686	-2.8260	-8.3707	107.5165	10.5571	8.6527	-0.0000	-19.6465	0.1008	-2.2392	68.1788	-12.2233	41.2192	28.4141	29.4503	-26.7579	-9.8788	79.8765	7.6257	27.4501	14.4196	61.9193	-21.6337	-16.8741	
5.2660	-12.5101	7.4862	-39.2660	0.0000	1.2500	-0.0000	41.0700	-9.7766	2.0388	44.6743	-1.4521	2.3091	0.0000	81.9009	-2.9422	-8.5556	106.3102	10.7343	8.2518	0.0000	-19.6418	0.0277	-2.2202	68.0549	-12.2084	41.1580	28.4164	29.4479	-26.7601	-9.8875	79.7481	7.6367	27.4181	14.4297	61.8885	-21.5991	-16.8015	
5.2830	-12.5901	7.5014	-39.4382	0.0000	1.2500	-0.0000	40.9828	-9.7390	1.6116	46.3293	-0.2474	2.1341	0.0000	82.3679	-3.0231	-8.6782	104.7387	10.9431	7.8177	0.0000	-19.6286	-0.0395	-2.2069	68.0169	-12.1631	41.1035	28.4085	29.4988	-26.7755	-9.8964	79.6144	7.6311	27.4007	14.4674	61.8225	-21.5471	-16.7275	
5.3000	-12.6679	7.4957	-39.5691	0.0000	1.2500	-0.0000	41.1661	-9.7052	1.3335	48.3841	0.9695	1.9830	-0.0000	82.5175	-3.0611	-8.7461	102.8703	11.1937	7.5081	0.0000	-19.6115	-0.0814	-2.1983	68.0063	-12.1000	41.0254	28.3874	29.5932	-26.7869	-9.9009	79.4810	7.6037	27.4478	14.5267	61.7083	-21.5098	-16.6763	
5.3160	-12.7432	7.4707	-39.6296	0.0000	1.2500	-0.0000	41.6297	-9.6796	1.2326	50.8460	2.1568	1.8686	-0.0000	82.3230	-3.0443	-8.7182	100.7022	11.5450	7.3815	0.0000	-19.5873	-0.0910	-2.1999	68.0000	-12.0175	40.9078	28.3479	29.7322	-26.7897	-9.8981	79.3460	7.5436	27.6095	14.6147	61.5178	-21.5042	-16.6652	
5.3330	-12.8162	7.4249	-39.6490	0.0000	1.2500	-0.0000	42.3640	-9.6584	1.2797	53.7076	3.3535	1.7725	-0.0000	81.8109	-2.9843	-8.6373	98.2367	11.9375	7.3682	-0.0000	-19.5594	-0.0754	-2.2063	68.0211	-11.9174	40.7664	28.2953	29.9149	-26.7885	-9.8911	79.2114	7.4617	27.8358	14.7242	61.2790	-21.5133	-16.6768	
5.3500	-12.8642	7.3344	-39.6704	0.0000	1.2500	-0.0000	43.2882	-9.6304	1.5108	56.8179	4.4626	1.7108	0.0000	81.0090	-2.9085	-8.6377	95.5477	12.2032	7.4303	0.0000	-19.5421	-0.0362	-2.2009	68.0801	-11.8167	40.6186	28.2411	30.1284	-26.7801	-9.8844	79.0881	7.3850	28.0253	14.8285	61.0633	-21.5183	-16.6828	
5.3660	-12.8725	7.1743	-39.7050	0.0000	1.2500	-0.0000	44.3963	-9.5690	2.0046	60.1938	5.4591	1.6897	0.0000	79.8993	-2.8232	-8.7832	92.6280	12.3175	7.5686	0.0000	-19.5418	0.0329	-2.1763	68.1873	-11.7220	40.4576	28.1862	30.3822	-26.7598	-9.8805	78.9718	7.3181	28.1534	14.9225	60.8868	-21.5149	-16.6745	
5.3830	-12.8555	6.9696	-39.7417	0.0000	1.2500	-0.0000	45.6947	-9.4883	2.6780	63.8226	6.3673	1.7011	0.0000	78.5003	-2.7200	-9.0094	89.4830	12.3028	7.7777	-0.0000	-19.5522	0.1255	-2.1398	68.3325	-11.6267	40.2900	28.1294	30.6668	-26.7324	-9.8771	78.8667	7.2564	28.2448	15.0113	60.7332	-21.5074	-16.6607	
5.4000	-12.8336	6.7704	-39.7899	0.0000	1.2500	-0.0000	47.1218	-9.4416	3.3257	67.5099	7.1665	1.7414	0.0000	76.8949	-2.6019	-9.2589	86.2055	12.0616	8.0173	-0.0000	-19.5685	0.2201	-2.0978	68.4949	-11.5275	40.1528	28.0804	30.9410	-26.7085	-9.8714	78.7957	7.2130	28.2729	15.0826	60.6249	-21.4898	-16.6390	
5.4160	-12.8032	6.5892	-39.8353	0.0000	1.2500	-0.0000	48.6663	-9.4492	3.8893	71.2470	7.8344	1.8055	0.0000	75.0861	-2.4577	-9.5390	82.7981	11.5191	8.2938	-0.0000	-19.5944	0.3155	-2.0541	68.6743	-11.4185	40.0644	28.0388	31.1867	-26.6861	-9.8592	78.7779	7.1943	28.2067	15.1254	60.5903	-21.4545	-16.5984	
5.4330	-12.7677	6.4136	-39.8925	0.0000	1.2500	-0.0000	50.3407	-9.4901	4.4303	75.0475	8.3937	1.9004	-0.0000	73.0714	-2.2941	-9.8408	79.2571	10.7484	8.6082	-0.0000	-19.6263	0.4128	-2.0047	68.8709	-11.3051	40.0066	28.0054	31.4221	-26.6671	-9.8448	78.7942	7.1939	28.0770	15.1509	60.6009	-21.4091	-16.5499	
5.4500	-12.7581	6.2564	-40.0151	0.0000	1.2500	-0.0000	52.1196	-9.5614	4.9263	78.7459	8.8915	2.0420	-0.0000	70.9256	-2.1424	-10.0867	75.6677	9.8758	8.9159	0.0000	-19.6486	0.4939	-1.9450	69.0648	-11.2014	39.9621	27.9915	31.6607	-26.6689	-9.8379	78.8105	7.2053	27.9497	15.1807	60.5938	-21.3710	-16.5251	
5.4660	-12.7863	6.1314	-40.2225	0.0000	1.2500	-0.0000	54.0072	-9.6744	5.3527	82.3050	9.3239	2.2681	0.0000	68.6423	-2.0040	-10.2438	72.0150	8.9203	9.2214	-0.0000	-19.6580	0.5488	-1.8736	69.2578	-11.1136	39.9030	28.0026	31.9263	-26.7009	-9.8425	78.8210	7.2390	27.8469	15.2227	60.5443	-21.3435	-16.5312	
5.4830	-12.8399	6.0242	-40.4957	0.0000	1.2500	-0.0000	56.0006	-9.8141	5.7339	85.7532	9.6951	2.5423	-0.0000	66.2274	-1.8761	-10.3535	68.3158	7.8634	9.5265	-0.0000	-19.6581	0.5874	-1.7919	69.4480	-11.0355	39.8571	28.0320	32.1945	-26.7535	-9.8545	78.8316	7.2846	27.7466	15.2686	60.4769	-21.3234	-16.5610	
5.5000	-12.9136	5.9052	-40.8311	0.0000	1.2500	-0.0000	58.0636	-9.9370	6.1170	89.0233	10.0643	2.7690	-0.0000	63.7734	-1.7856	-10.4567	64.7039	6.7759	9.7800	0.0000	-19.6438	0.6216	-1.6988	69.6094	-10.9628	39.8907	28.0738	32.4072	-26.8147	-9.8705	78.8255	7.3047	27.6480	15.3153	60.4027	-21.3191	-16.6251	
5.5160	-13.0119	5.7650	-41.2459	0.0000	1.2500	-0.0000	60.1998	-10.0246	6.4973	92.1233	10.4638	2.8949	-0.0000	61.2673	-1.7417	-10.5892	61.1619	5.6709	9.9653	0.0000	-19.6105	0.6525	-1.5914	69.7354	-10.8949	40.0643	28.1308	32.5225	-26.8929	-9.8958	78.7995	7.2833	27.5486	15.3605	60.3239	-21.3332	-16.7384	
5.5330	-13.1294	5.6121	-41.7231	0.0000	1.2500	-0.0000	62.4047	-10.0907	6.8699	95.0407	10.8617	2.9755	-0.0000	58.7217	-1.7285	-10.7288	57.7076	4.5364	10.1004	0.0000	-19.5630	0.6793	-1.4724	69.8322	-10.8328	40.3172	28.2010	32.5827	-26.9798	-9.9251	78.7562	7.2367	27.4508	15.4067	60.2384	-21.3634	-16.8862	
5.5500	-13.2456	5.4443	-42.2074	0.0000	1.2500	-0.0000	64.6297	-10.1390	7.2814	97.6823	11.2201	3.0788	-0.0000	56.2678	-1.7414	-10.8274	54.5269	3.4064	10.1825	-0.0000	-19.5096	0.7107	-1.3494	69.8922	-10.7751	40.5342	28.2719	32.6549	-27.0381	-9.9395	78.6875	7.1749	27.3614	15.4584	60.1506	-21.4097	-17.0342	
5.5660	-13.3578	5.2528	-42.7110	0.0000	1.2500	-0.0000	66.8903	-10.1598	7.7681	100.0418	11.5262	3.2487	-0.0000	53.9118	-1.7947	-10.8441	51.6304	2.2696	10.1898	-0.0000	-19.4470	0.7476	-1.2190	69.8903	-10.7159	40.6716	28.3428	32.7650	-27.0452	-9.9273	78.5771	7.0910	27.2841	15.5204	60.0600	-21.4828	-17.1811	
5.5830	-13.4682	5.0464	-43.2217	0.0000	1.2500	-0.0000	69.1716	-10.1582	8.2892	102.1264	11.7922	3.4409	0.0000	51.6453	-1.8826	-10.8238	49.0075	1.1368	10.1410	-0.0000	-19.3788	0.7895	-1.0844	69.8521	-10.6615	40.7730	28.4142	32.8869	-27.0239	-9.9001	78.4411	6.9922	27.2151	15.5884	59.9673	-21.5722	-17.3285	
5.6000	-13.5650	4.8498	-43.6482	0.0000	1.2500	-0.0000	71.3805	-10.1675	8.7872	103.8635	12.0178	3.5907	0.0000	49.5787	-1.9764	-10.8348	46.8122	0.0755	10.0932	-0.0000	-19.3227	0.8426	-0.9635	69.8470	-10.6278	40.8537	28.4751	33.0099	-27.0052	-9.8737	78.3208	6.9101	27.1500	15.6525	59.8779	-21.6459	-17.4459	
